# xmcd
#
# Track frame offsets: 
#        150
#        15365
#        31357
#        42532
#        59990
#        68390
#        86590
#        105285
#        119217
#        132450
#        151210
#        166235
#        181277
#        194832
#        208567
#        224165
#        234857
#        258370
#
# Disc length: 3534 seconds
#
# Revision: 2
# Processed by: cddbd v1.5.2PL0 Copyright (c) Steve Scherf et al.
# Submitted via: ExactAudioCopy v1.3
#
DISCID=060dcc12
DTITLE=Various Artist - DeeJay Parade - CD2
DYEAR=1900
DGENRE=Dance
TTITLE0=Bamble B. - Crime Of Passion
TTITLE1=Web - Like An Angel
TTITLE2=Floorfilla - Anthem #3
TTITLE3=Carolina Marquez - Super DJ
TTITLE4=DJ Balloon - Pussy Lovers
TTITLE5=Lady Violet - Beautiful World
TTITLE6=Mabel - Bum Bum
TTITLE7=The Soundlovers - Wonderful Life
TTITLE8=Mario Più - Techno Harmony - My Love
TTITLE9=Unconditional - Computer Love
TTITLE10=Love Connection - The Bomb
TTITLE11=Quik feat. Charlotte - Need You Tonite
TTITLE12=Paps 'n' Skar - Turn Around
TTITLE13=Miranda - Eldorado
TTITLE14=Mauro Picotto - Komodo
TTITLE15=Nick Beat - Technodisco
TTITLE16=Gigi D'Agostino - L'Amour Toujours (Remix)
TTITLE17=Angelic - It's My Turn
EXTD=
EXTT0=
EXTT1=
EXTT2=
EXTT3=
EXTT4=
EXTT5=
EXTT6=
EXTT7=
EXTT8=
EXTT9=
EXTT10=
EXTT11=
EXTT12=
EXTT13=
EXTT14=
EXTT15=
EXTT16=
EXTT17=
PLAYORDER=
